<?xml version="1.0" encoding="UTF-8"?>
<svg version="1.1" xmlns="http://www.w3.org/2000/svg" viewBox="0 0 282 268" width="282" height="268">
<path d="M0 0 C3.44819947 2.6126579 6.82106762 5.30037981 10.17578125 8.03125 C10.81112793 8.54574707 11.44647461 9.06024414 12.10107422 9.59033203 C14.7867288 11.76525457 17.4697283 13.94333758 20.14672852 16.12890625 C28.17914911 22.68551091 36.34060096 29.07401265 44.55078125 35.40625 C49.50723874 39.25097871 54.36197911 43.22127927 59.21972656 47.18945312 C63.04375854 50.31148018 66.9006294 53.37935454 70.80078125 56.40625 C76.74028406 61.15785225 83.26837352 67.0893955 84.4778595 75.00930786 C84.61934989 77.34814952 84.6694772 79.67253367 84.6875 82.015625 C84.71449478 83.36694267 84.71449478 83.36694267 84.74203491 84.74555969 C84.79737936 87.75741366 84.83077687 90.76906907 84.86328125 93.78125 C84.89639588 95.90683002 84.93018516 98.03239962 84.96459961 100.15795898 C85.39510582 129.44481876 85.26636009 158.74224233 85.17578125 188.03125 C84.51578125 188.03125 83.85578125 188.03125 83.17578125 188.03125 C82.99015625 189.0625 82.80453125 190.09375 82.61328125 191.15625 C81.46396423 195.32252419 79.09833108 197.21684108 75.734375 199.76953125 C74.03558395 200.96680881 74.03558395 200.96680881 73.17578125 203.03125 C72.18578125 203.03125 71.19578125 203.03125 70.17578125 203.03125 C70.17578125 203.69125 70.17578125 204.35125 70.17578125 205.03125 C64.6654505 206.88439939 59.85749952 207.31324826 54.06640625 207.26171875 C53.21778015 207.26126053 52.36915405 207.26080231 51.49481201 207.2603302 C49.7131611 207.25732557 47.9315124 207.24949339 46.14990234 207.23706055 C43.42015316 207.21871217 40.69074216 207.21655179 37.9609375 207.21679688 C36.22525748 207.21188427 34.48957975 207.20605708 32.75390625 207.19921875 C31.93827209 207.19810593 31.12263794 207.1969931 30.2822876 207.19584656 C26.99615592 207.1681878 24.31466467 207.07754447 21.17578125 206.03125 C18.87046472 202.73239638 18.81581594 199.53889749 18.73828125 195.59375 C18.69832031 194.48128906 18.65835938 193.36882812 18.6171875 192.22265625 C19.17578125 189.03125 19.17578125 189.03125 20.82421875 186.16796875 C26.25295068 182.70699396 31.93516811 183.28762 38.23828125 183.28125 C40.7708785 183.24807744 43.30343702 183.2117569 45.8359375 183.171875 C46.95621338 183.16704102 48.07648926 183.16220703 49.23071289 183.15722656 C51.7598115 183.04904328 53.75438459 182.67287387 56.17578125 182.03125 C57.49578125 182.03125 58.81578125 182.03125 60.17578125 182.03125 C61.35110443 171.3620648 61.35708553 160.72200665 61.37890625 150.00390625 C61.38173363 149.06131895 61.384561 148.11873165 61.38747406 147.1475811 C61.40235932 142.17512618 61.41166033 137.20269956 61.41601562 132.23022461 C61.42153507 127.10348034 61.44566576 121.976997 61.47398758 116.85033512 C61.49259596 112.8929517 61.49781824 108.93563202 61.4993515 104.97820854 C61.50237441 103.0871784 61.5103907 101.19614929 61.52353668 99.30516243 C61.54058568 96.66816064 61.53872172 94.03180987 61.53222656 91.39477539 C61.54604874 90.22974739 61.54604874 90.22974739 61.56015015 89.04118347 C61.52526346 84.52111836 60.99099999 81.61235469 58.17578125 78.03125 C56.21079803 76.64683 54.2052966 75.31921166 52.17578125 74.03125 C49.12573197 71.57017575 46.21033109 68.95061284 43.28125 66.34765625 C42.36279297 65.54134766 42.36279297 65.54134766 41.42578125 64.71875 C40.8740625 64.22761719 40.32234375 63.73648438 39.75390625 63.23046875 C38.0695398 61.81683375 38.0695398 61.81683375 35.17578125 61.03125 C33.49292736 59.38092932 31.82960552 57.71066086 30.17578125 56.03125 C27.74609771 53.92802642 25.24399922 51.91790832 22.73828125 49.90625 C21.68483521 49.0558313 21.68483521 49.0558313 20.61010742 48.18823242 C9.58827777 39.3104669 -1.58822919 30.6355543 -12.82421875 22.03125 C-13.48421875 22.36125 -14.14421875 22.69125 -14.82421875 23.03125 C-15.71109375 23.10601562 -16.59796875 23.18078125 -17.51171875 23.2578125 C-21.93769263 24.29123565 -24.41761049 26.49926564 -27.82421875 29.40625 C-29.15438735 30.50588678 -30.48512967 31.60482987 -31.81640625 32.703125 C-32.48510742 33.26064453 -33.15380859 33.81816406 -33.84277344 34.39257812 C-36.83604831 36.86804152 -39.88878554 39.26468167 -42.94921875 41.65625 C-43.52696045 42.10935547 -44.10470215 42.56246094 -44.69995117 43.02929688 C-52.09651988 48.8243323 -59.5506761 54.5444215 -67.03125 60.23046875 C-73.47976854 65.13514703 -79.92534924 70.04458531 -86.26171875 75.09375 C-87.10605469 75.76535156 -87.95039062 76.43695313 -88.8203125 77.12890625 C-92.18140895 80.31965473 -92.77550473 82.28917174 -93.08491516 87.00253296 C-93.09983769 88.64404277 -93.10368518 90.28567549 -93.09887695 91.92724609 C-93.10398788 92.82527451 -93.10909882 93.72330292 -93.11436462 94.64854431 C-93.12826503 97.6173265 -93.12730337 100.58587663 -93.125 103.5546875 C-93.12888696 105.61968065 -93.13322163 107.684673 -93.13798523 109.74966431 C-93.14544862 114.07890412 -93.14515549 118.40806239 -93.13989258 122.73730469 C-93.13410085 128.28120887 -93.15102133 133.82477865 -93.17423725 139.36862755 C-93.18898061 143.63404284 -93.18984541 147.89937774 -93.18672752 152.164814 C-93.18724053 154.20851936 -93.19247441 156.25222924 -93.20253944 158.29590988 C-93.21489667 161.15631475 -93.20811608 164.01607012 -93.1965332 166.87646484 C-93.20417694 167.71822769 -93.21182068 168.55999054 -93.21969604 169.42726135 C-93.17566427 174.35493225 -92.56811935 177.76510944 -89.82421875 182.03125 C-87.12132567 183.38269654 -85.02352069 183.15100165 -81.99755859 183.14477539 C-80.16588638 183.14466209 -80.16588638 183.14466209 -78.29721069 183.14454651 C-76.9598588 183.13943952 -75.62250732 183.13422352 -74.28515625 183.12890625 C-72.92038016 183.1270414 -71.55560341 183.12561781 -70.19082642 183.12461853 C-66.59706782 183.12079863 -63.00334958 183.11097283 -59.40960693 183.09991455 C-55.74312893 183.08968911 -52.0766444 183.08511848 -48.41015625 183.08007812 C-41.21482534 183.0693501 -34.0195277 183.05227999 -26.82421875 183.03125 C-26.82591064 181.35953735 -26.82591064 181.35953735 -26.82763672 179.65405273 C-26.82394922 175.4956649 -26.78100945 171.33842732 -26.7265625 167.18041992 C-26.70846047 165.38524818 -26.70082345 163.58993775 -26.70410156 161.79467773 C-26.70697556 159.2044873 -26.67149142 156.61713862 -26.62890625 154.02734375 C-26.63800018 153.23226913 -26.64709412 152.43719452 -26.65646362 151.61802673 C-26.51566331 146.14750359 -25.07000847 143.31984615 -21.34074402 139.32672119 C-19.29294681 137.57741813 -17.94516832 137.17573437 -15.26171875 137.34375 C-11.05617254 137.69775221 -8.68734816 138.82107461 -5.82421875 142.03125 C-0.58438312 153.24555443 -2.70623124 168.15565765 -2.76171875 180.28125 C-2.76674473 182.20182175 -2.77130569 184.12239477 -2.77539062 186.04296875 C-2.78630708 190.70576118 -2.80351095 195.36849119 -2.82421875 200.03125 C-3.48421875 200.03125 -4.14421875 200.03125 -4.82421875 200.03125 C-4.90671875 200.815 -4.98921875 201.59875 -5.07421875 202.40625 C-5.82421875 205.03125 -5.82421875 205.03125 -7.36694336 206.1751709 C-10.85106629 207.38898879 -14.24384465 207.34281001 -17.890625 207.35351562 C-19.10616814 207.36841034 -19.10616814 207.36841034 -20.3462677 207.38360596 C-23.02645283 207.4128026 -25.70640071 207.42644961 -28.38671875 207.4375 C-30.25797528 207.44901262 -32.12923179 207.46052796 -34.00048828 207.4720459 C-37.92790827 207.49305666 -41.85524657 207.50474603 -45.78271484 207.51171875 C-50.78829732 207.52264642 -55.79278014 207.57061196 -60.79801941 207.62766266 C-64.66736876 207.66513391 -68.53645997 207.67533834 -72.40597534 207.6783905 C-74.2493995 207.68440239 -76.09282137 207.70031899 -77.93606567 207.72676086 C-89.67922249 207.88310288 -99.25950083 207.33566614 -108.72998047 199.44299316 C-115.69332017 192.18480454 -117.42455391 182.93058899 -117.34179688 173.23242188 C-117.34880615 172.20339249 -117.35581543 171.1743631 -117.36303711 170.114151 C-117.38051527 166.74248561 -117.36903012 163.37167261 -117.35546875 160 C-117.35816657 157.6392806 -117.36205141 155.27856229 -117.36706543 152.91784668 C-117.37294673 147.98206959 -117.36444138 143.04658303 -117.34570312 138.11083984 C-117.32291489 131.80287293 -117.33604526 125.49558693 -117.35999298 119.18764496 C-117.37448775 114.31641565 -117.36982802 109.44534621 -117.35948181 104.57411194 C-117.35682471 102.24902769 -117.36004826 99.92392865 -117.36940002 97.59886169 C-117.37962602 94.34221269 -117.36397913 91.08664702 -117.34179688 87.83007812 C-117.3498938 86.88121231 -117.35799072 85.9323465 -117.36633301 84.95472717 C-117.24309848 75.12583805 -114.01531351 67.4075002 -107.26953125 60.30078125 C-102.97894592 56.31862458 -98.31063338 52.87498081 -93.62011719 49.38769531 C-90.48926959 47.0229605 -87.44138228 44.55559367 -84.38671875 42.09375 C-78.86462054 37.65599366 -73.31313733 33.2585227 -67.73583984 28.89038086 C-64.47556053 26.33506423 -61.23471485 23.75860158 -58.01171875 21.15625 C-50.72260342 15.31052384 -43.27468165 9.66885136 -35.82421875 4.03125 C-35.23801758 3.58587891 -34.65181641 3.14050781 -34.04785156 2.68164062 C-32.54143019 1.54071463 -31.02689497 0.41052343 -29.51171875 -0.71875 C-28.69058594 -1.33234375 -27.86945313 -1.9459375 -27.0234375 -2.578125 C-18.68394988 -7.85140669 -7.59514424 -5.29454038 0 0 Z " fill="#224264" transform="translate(171.82421875,33.96875)"/>
<path d="M0 0 C4.37594182 2.0096561 7.66245268 4.57012048 11.296875 7.69140625 C12.35165039 8.573125 12.35165039 8.573125 13.42773438 9.47265625 C14.83501907 10.64947071 16.23876182 11.83053565 17.63867188 13.01611328 C20.08434073 15.08316657 22.56303293 17.10796202 25.046875 19.12890625 C26.32304687 20.17498047 26.32304687 20.17498047 27.625 21.2421875 C29.92322837 23.11948367 32.225553 24.99128324 34.53125 26.859375 C35.23572266 27.43042969 35.94019531 28.00148437 36.66601562 28.58984375 C38.0442397 29.7065716 39.42310327 30.82251089 40.80273438 31.9375 C42.72344821 33.4941066 44.63579278 35.06049744 46.546875 36.62890625 C47.19720703 37.15307129 47.84753906 37.67723633 48.51757812 38.21728516 C49.14083984 38.73081543 49.76410156 39.2443457 50.40625 39.7734375 C50.96280273 40.2269458 51.51935547 40.6804541 52.09277344 41.14770508 C54.68282042 43.7860219 55.47849471 46.19298188 56.046875 49.81640625 C55.36413651 55.02228721 53.00209301 58.71131114 49.546875 62.62890625 C45.90904868 63.84151502 43.36951501 64.02435177 39.546875 63.62890625 C37.109375 61.56640625 37.109375 61.56640625 34.546875 58.62890625 C33.17006886 57.33748343 31.77305309 56.06735881 30.359375 54.81640625 C29.34810547 53.90955078 29.34810547 53.90955078 28.31640625 52.984375 C26.65375852 51.42620612 26.65375852 51.42620612 24.546875 51.62890625 C24.0725 50.98953125 23.598125 50.35015625 23.109375 49.69140625 C21.6377385 47.34517662 21.6377385 47.34517662 18.546875 46.62890625 C17.37464966 45.49017306 16.20721806 44.34573702 15.07421875 43.16796875 C13.25104174 41.33080317 11.35361356 39.60152082 9.421875 37.87890625 C8.75929688 37.2859375 8.09671875 36.69296875 7.4140625 36.08203125 C5.50504121 34.42990988 5.50504121 34.42990988 2.546875 33.62890625 C1.17491926 32.33534798 -0.16495156 31.00591923 -1.453125 29.62890625 C-6.34162494 32.75359284 -10.79303208 36.25146392 -15.265625 39.94140625 C-16.69348912 41.11001224 -18.12187014 42.27798695 -19.55078125 43.4453125 C-20.56809326 44.27699951 -20.56809326 44.27699951 -21.60595703 45.12548828 C-24.44976693 47.44007741 -27.32371606 49.71008374 -30.2421875 51.9296875 C-31.98932432 53.27245166 -33.7073283 54.65311712 -35.4140625 56.046875 C-36.46842789 56.88712311 -37.52311335 57.72696973 -38.578125 58.56640625 C-39.52945313 59.33855469 -40.48078125 60.11070312 -41.4609375 60.90625 C-45.13813419 63.02327838 -47.26954615 63.15604677 -51.453125 62.62890625 C-54.94282339 60.98768373 -57.2685905 58.79894504 -59.453125 55.62890625 C-60.66180266 51.11783061 -60.57221362 46.97755147 -58.54296875 42.71875 C-54.69621639 37.74267585 -49.14217855 34.16886421 -44.14453125 30.4296875 C-40.18338949 27.4527068 -36.34874131 24.33053651 -32.515625 21.19140625 C-27.32642598 16.95898337 -22.13245877 12.73357525 -16.890625 8.56640625 C-16.34349854 8.12562744 -15.79637207 7.68484863 -15.23266602 7.23071289 C-13.66785122 5.99336737 -12.06057608 4.81033348 -10.453125 3.62890625 C-9.88867676 3.21141113 -9.32422852 2.79391602 -8.74267578 2.36376953 C-5.5766064 0.25511269 -3.80791475 -0.40922161 0 0 Z " fill="#224264" transform="translate(158.453125,103.37109375)"/>
<path d="M0 0 C4.85029222 1.50495048 7.91708481 4.24386693 11.5625 7.625 C12.12646484 8.12128906 12.69042969 8.61757812 13.27148438 9.12890625 C13.82255859 9.63550781 14.37363281 10.14210938 14.94140625 10.6640625 C15.43326416 11.11217285 15.92512207 11.5602832 16.43188477 12.02197266 C21.19680714 18.03246636 22.59802412 23.62514309 22.609375 31.1796875 C22.63424736 32.52676033 22.63424736 32.52676033 22.65962219 33.90104675 C22.70911079 36.89243693 22.72996016 39.88327846 22.75 42.875 C22.77801894 44.99147126 22.80726564 47.10792656 22.83764648 49.22436523 C23.21222267 78.47872493 23.09047667 107.74403157 23 137 C22.34 137 21.68 137 21 137 C20.690625 138.5778125 20.690625 138.5778125 20.375 140.1875 C19.10321092 144.67993482 16.86326863 146.47704906 13 149 C12.01 148.67 11.02 148.34 10 148 C10.66 148 11.32 148 12 148 C12.19335938 147.37351563 12.38671875 146.74703125 12.5859375 146.1015625 C12.84632813 145.28429687 13.10671875 144.46703125 13.375 143.625 C13.75785156 142.40683594 13.75785156 142.40683594 14.1484375 141.1640625 C15 139 15 139 17 137 C17.33 136.01 17.66 135.02 18 134 C18 134.66 18 135.32 18 136 C18.66 136 19.32 136 20 136 C20 135.01 20 134.02 20 133 C19.34 133 18.68 133 18 133 C18 132.34 18 131.68 18 131 C18.66 131 19.32 131 20 131 C19.99777939 129.7015213 19.99555878 128.4030426 19.99327087 127.06521606 C19.97303328 114.85143916 19.95802487 102.63766565 19.94818783 90.42387581 C19.94296058 84.14406767 19.93586578 77.86427303 19.92456055 71.58447266 C19.91372609 65.52854148 19.90772197 59.47262331 19.90512276 53.4166832 C19.90326952 51.10173208 19.89965084 48.7867817 19.89426994 46.47183609 C19.88705213 43.23918344 19.88600938 40.00658514 19.88647461 36.77392578 C19.88287933 35.80863953 19.87928406 34.84335327 19.87557983 33.84881592 C19.8769545 32.97099457 19.87832916 32.09317322 19.87974548 31.18875122 C19.87882369 30.42366304 19.8779019 29.65857487 19.87695217 28.8703022 C20 27 20 27 21 25 C20.34 25 19.68 25 19 25 C18.74605469 24.30132812 18.49210937 23.60265625 18.23046875 22.8828125 C17.88628906 21.97273438 17.54210937 21.06265625 17.1875 20.125 C16.85105469 19.22007813 16.51460937 18.31515625 16.16796875 17.3828125 C15.10350976 14.70574151 15.10350976 14.70574151 12 13 C12 12.34 12 11.68 12 11 C11.34 10.67 10.68 10.34 10 10 C8.61462266 9.22663674 7.2406703 8.43265448 5.875 7.625 C5.15054688 7.20476562 4.42609375 6.78453125 3.6796875 6.3515625 C3.12539062 5.90554687 2.57109375 5.45953125 2 5 C2 4.01 2 3.02 2 2 C1.34 2 0.68 2 0 2 C0 1.34 0 0.68 0 0 Z " fill="#2B476E" transform="translate(234,85)"/>
<path d="M0 0 C0.99 0 1.98 0 3 0 C2.96744792 1.85546875 2.93489583 3.7109375 2.90234375 5.56640625 C2.95645801 8.11972796 2.95645801 8.11972796 3.49609375 11.0859375 C4.14136845 16.09807122 4.14525681 21.01517904 4.125 26.0625 C4.13080078 27.51366211 4.13080078 27.51366211 4.13671875 28.99414062 C4.13017437 33.77480935 3.99856331 38.30041235 3 43 C2.67 43 2.34 43 2 43 C1.67 44.65 1.34 46.3 1 48 C1.66 48 2.32 48 3 48 C3.625 50.875 3.625 50.875 4 54 C3.34 54.66 2.68 55.32 2 56 C2 55.34 2 54.68 2 54 C1.34 54 0.68 54 0 54 C-0.33 55.65 -0.66 57.3 -1 59 C-1.96824707 59.02505615 -2.93649414 59.0501123 -3.93408203 59.07592773 C-7.54601985 59.17050706 -11.15778785 59.27060183 -14.76953125 59.37231445 C-16.32906099 59.41547308 -17.88863219 59.45716056 -19.44824219 59.49731445 C-21.69739242 59.55548213 -23.94633759 59.61903923 -26.1953125 59.68359375 C-27.23161301 59.70866249 -27.23161301 59.70866249 -28.28884888 59.73423767 C-32.27363963 59.85461593 -36.08458012 60.25154219 -40 61 C-40.85298376 64.67387495 -41.10789471 68.0447393 -41.0625 71.8125 C-41.05347656 72.78832031 -41.04445312 73.76414062 -41.03515625 74.76953125 C-41.02355469 75.50558594 -41.01195312 76.24164063 -41 77 C-41.66 76.67 -42.32 76.34 -43 76 C-43.1357683 73.93933896 -43.23233903 71.87607243 -43.3125 69.8125 C-43.37050781 68.66394531 -43.42851562 67.51539063 -43.48828125 66.33203125 C-43 63 -43 63 -41.359375 60.12109375 C-35.91941829 56.68633038 -30.23824587 57.25636761 -23.9375 57.25 C-21.40490275 57.21682744 -18.87234423 57.1805069 -16.33984375 57.140625 C-15.21956787 57.13579102 -14.09929199 57.13095703 -12.94506836 57.12597656 C-10.41596975 57.01779328 -8.42139666 56.64162387 -6 56 C-4.68 56 -3.36 56 -2 56 C-0.9170847 46.08334814 -0.91210032 36.26923217 -1 26.3125 C-1.16110251 7.9372242 -1.16110251 7.9372242 0 0 Z " fill="#23436B" transform="translate(234,160)"/>
<path d="M0 0 C1.65 0 3.3 0 5 0 C4.01 0.33 3.02 0.66 2 1 C1.31825703 2.32568803 0.6531447 3.65999096 0 5 C-1.62548828 6.53295898 -1.62548828 6.53295898 -3.5703125 7.99609375 C-4.65590454 8.82439697 -4.65590454 8.82439697 -5.76342773 9.66943359 C-6.54274658 10.25289551 -7.32206543 10.83635742 -8.125 11.4375 C-9.76554281 12.68720229 -11.40484078 13.93854022 -13.04296875 15.19140625 C-13.87231934 15.82449707 -14.70166992 16.45758789 -15.55615234 17.10986328 C-19.24198517 19.96058434 -22.83983841 22.91435155 -26.4375 25.875 C-31.58024855 30.09037791 -36.80075579 34.11315134 -42.21875 37.97265625 C-45.58389683 40.42562142 -48.85645945 42.98292079 -52.125 45.5625 C-53.01517822 46.26427368 -53.01517822 46.26427368 -53.92333984 46.98022461 C-56.56252654 49.06435299 -59.19504789 51.15614637 -61.8203125 53.2578125 C-62.62210937 53.89460938 -63.42390625 54.53140625 -64.25 55.1875 C-65.27867188 56.01314453 -65.27867188 56.01314453 -66.328125 56.85546875 C-68 58 -68 58 -70 58 C-70 55 -70 55 -68.25 52.8125 C-66 51 -66 51 -62 51 C-62 48.36 -62 45.72 -62 43 C-60.68 43 -59.36 43 -58 43 C-58 43.66 -58 44.32 -58 45 C-55.525 44.505 -55.525 44.505 -53 44 C-53 43.34 -53 42.68 -53 42 C-49.75946437 39.05405851 -46.90094311 36.95047155 -43 35 C-42.34 34.01 -41.68 33.02 -41 32 C-37.875 30.8125 -37.875 30.8125 -35 30 C-35 29.34 -35 28.68 -35 28 C-29.58823529 24 -29.58823529 24 -27 24 C-27 23.34 -27 22.68 -27 22 C-26.34 22 -25.68 22 -25 22 C-25 21.34 -25 20.68 -25 20 C-23.25 17.875 -23.25 17.875 -21 16 C-19.68 16 -18.36 16 -17 16 C-16.67 15.01 -16.34 14.02 -16 13 C-14.3984375 11.5703125 -14.3984375 11.5703125 -12.375 10.125 C-11.30185547 9.34769531 -11.30185547 9.34769531 -10.20703125 8.5546875 C-8.79010012 7.5565661 -7.37100739 6.5615023 -5.94921875 5.5703125 C-2.43492441 3.29030246 -2.43492441 3.29030246 0 0 Z " fill="#3B4F6A" transform="translate(150,54)"/>
<path d="M0 0 C4.65513315 0.5106179 7.18558376 2.36336576 10.8125 5.25 C11.64793335 5.90947632 11.64793335 5.90947632 12.50024414 6.58227539 C14.34297709 8.04342079 16.17280779 9.51947435 18 11 C18.9595459 11.77609619 18.9595459 11.77609619 19.93847656 12.56787109 C22.61683725 14.73717114 25.2920057 16.91028144 27.96142578 19.09057617 C33.58952638 23.68556779 39.2861574 28.18752113 45.01171875 32.66015625 C47.6887134 34.75626056 50.34940139 36.87066939 53 39 C52.505 39.99 52.505 39.99 52 41 C49.5 39.625 49.5 39.625 47 38 C47 37.34 47 36.68 47 36 C46.236875 35.896875 45.47375 35.79375 44.6875 35.6875 C41.77908957 34.94348803 40.92670112 34.20194413 39 32 C38.34 31.67 37.68 31.34 37 31 C37 30.34 37 29.68 37 29 C36.34 29 35.68 29 35 29 C35 28.34 35 27.68 35 27 C34.01 27 33.02 27 32 27 C29.8125 25.125 29.8125 25.125 28 23 C28 22.34 28 21.68 28 21 C26.63875 20.6596875 26.63875 20.6596875 25.25 20.3125 C21.52370133 18.80764861 20.30556384 17.21132106 18 14 C17.34 13.67 16.68 13.34 16 13 C16 12.34 16 11.68 16 11 C15.01 11 14.02 11 13 11 C11.33333333 9.33333333 9.66666667 7.66666667 8 6 C5.89861166 4.58996061 3.7590618 3.2917995 1.57421875 2.015625 C1.05472656 1.68046875 0.53523437 1.3453125 0 1 C0 0.67 0 0.34 0 0 Z " fill="#3D536D" transform="translate(164,31)"/>
<path d="M0 0 C0.99 0 1.98 0 3 0 C2.855625 0.556875 2.71125 1.11375 2.5625 1.6875 C1.97230872 4.11384195 1.476571 6.54906345 1 9 C1.66 9 2.32 9 3 9 C3.625 11.875 3.625 11.875 4 15 C3.34 15.66 2.68 16.32 2 17 C2 16.34 2 15.68 2 15 C1.34 15 0.68 15 0 15 C-0.495 17.475 -0.495 17.475 -1 20 C-1.96824707 20.02505615 -2.93649414 20.0501123 -3.93408203 20.07592773 C-7.54601985 20.17050706 -11.15778785 20.27060183 -14.76953125 20.37231445 C-16.32906099 20.41547308 -17.88863219 20.45716056 -19.44824219 20.49731445 C-21.69739242 20.55548213 -23.94633759 20.61903923 -26.1953125 20.68359375 C-27.23161301 20.70866249 -27.23161301 20.70866249 -28.28884888 20.73423767 C-32.27363963 20.85461593 -36.08458012 21.25154219 -40 22 C-40.85298376 25.67387495 -41.10789471 29.0447393 -41.0625 32.8125 C-41.05347656 33.78832031 -41.04445312 34.76414063 -41.03515625 35.76953125 C-41.02355469 36.50558594 -41.01195312 37.24164063 -41 38 C-41.66 37.67 -42.32 37.34 -43 37 C-43.1357683 34.93933896 -43.23233903 32.87607243 -43.3125 30.8125 C-43.37050781 29.66394531 -43.42851562 28.51539063 -43.48828125 27.33203125 C-43 24 -43 24 -41.359375 21.12109375 C-35.91941829 17.68633038 -30.23824587 18.25636761 -23.9375 18.25 C-21.40490275 18.21682744 -18.87234423 18.1805069 -16.33984375 18.140625 C-15.21956787 18.13579102 -14.09929199 18.13095703 -12.94506836 18.12597656 C-10.41596975 18.01779328 -8.42139666 17.64162387 -6 17 C-4.68 17 -3.36 17 -2 17 C-1.90912109 15.78763672 -1.90912109 15.78763672 -1.81640625 14.55078125 C-1.73261719 13.48214844 -1.64882812 12.41351563 -1.5625 11.3125 C-1.48128906 10.25675781 -1.40007812 9.20101562 -1.31640625 8.11328125 C-1.03548319 5.34913703 -0.59843148 2.71054259 0 0 Z " fill="#2F496D" transform="translate(234,199)"/>
<path d="M0 0 C1.98 0 3.96 0 6 0 C6 0.99 6 1.98 6 3 C6.556875 3.061875 7.11375 3.12375 7.6875 3.1875 C10.93794615 4.32954865 12.61587372 6.55627057 15 9 C17.16620544 10.29519995 17.16620544 10.29519995 19 11 C19 11.66 19 12.32 19 13 C19.928125 13.4640625 19.928125 13.4640625 20.875 13.9375 C22.25 14.625 23.625 15.3125 25 16 C25 16.66 25 17.32 25 18 C26.65 18.66 28.3 19.32 30 20 C30 20.66 30 21.32 30 22 C31.65 22.33 33.3 22.66 35 23 C35 23.99 35 24.98 35 26 C37.475 26.99 37.475 26.99 40 28 C40 28.66 40 29.32 40 30 C41.11375 30.433125 41.11375 30.433125 42.25 30.875 C43.61125 31.431875 43.61125 31.431875 45 32 C45.721875 32.268125 46.44375 32.53625 47.1875 32.8125 C49.6687326 34.43813515 50.12585259 36.23186652 51 39 C46.64514309 37.55631337 43.77199182 35.35875396 40.3125 32.375 C39.23890673 31.46020293 38.16468029 30.54614846 37.08984375 29.6328125 C36.56245605 29.18196289 36.03506836 28.73111328 35.49169922 28.26660156 C28.75685216 22.54804403 21.71053729 17.18910073 14.75 11.75 C13.98091309 11.14704102 13.21182617 10.54408203 12.41943359 9.92285156 C9.16060276 7.38403615 5.9170763 4.89442684 2.453125 2.640625 C1.64359375 2.09921875 0.8340625 1.5578125 0 1 C0 0.67 0 0.34 0 0 Z " fill="#3C516A" transform="translate(157,54)"/>
<path d="M0 0 C0.495 0.99 0.495 0.99 1 2 C0.0409375 2.37125 0.0409375 2.37125 -0.9375 2.75 C-3.18741541 3.81562433 -3.18741541 3.81562433 -3.75 6.125 C-3.8325 6.74375 -3.915 7.3625 -4 8 C-4.70769531 8.08507812 -5.41539063 8.17015625 -6.14453125 8.2578125 C-9.64128447 9.16668133 -11.79635122 10.72142942 -14.6875 12.875 C-15.64011719 13.57367188 -16.59273437 14.27234375 -17.57421875 14.9921875 C-20.17180594 16.94648376 -20.17180594 16.94648376 -22 20 C-22.99 20 -23.98 20 -25 20 C-25.22816406 20.598125 -25.45632812 21.19625 -25.69140625 21.8125 C-27.36226902 24.60558404 -29.09082171 25.46170689 -31.9375 27 C-35.58159953 28.97500534 -37.58663998 30.65731627 -40 34 C-40.66 34 -41.32 34 -42 34 C-42.4021875 35.051875 -42.4021875 35.051875 -42.8125 36.125 C-44.0681449 39.1649824 -45.50235123 42.0727774 -47 45 C-47.93297347 42.50457699 -48.1771908 41.40985003 -47.1015625 38.921875 C-40.80935349 29.66666809 -32.31566214 23.35357655 -23.484375 16.6640625 C-21.05104492 14.81622652 -18.65017572 12.93380186 -16.265625 11.0234375 C-15.6471167 10.52948486 -15.0286084 10.03553223 -14.39135742 9.52661133 C-13.20584398 8.57753589 -12.02350062 7.6244816 -10.8449707 6.66674805 C-7.40876495 3.92559646 -3.99644794 1.82643096 0 0 Z " fill="#3E5570" transform="translate(105,64)"/>
<path d="M0 0 C0.7425 0.2475 1.485 0.495 2.25 0.75 C-1.5 2.75 -1.5 2.75 -3.75 2.75 C-3.75 3.41 -3.75 4.07 -3.75 4.75 C-4.41 4.75 -5.07 4.75 -5.75 4.75 C-5.75 6.73 -5.75 8.71 -5.75 10.75 C-5.09 10.75 -4.43 10.75 -3.75 10.75 C-3.42 20.98 -3.09 31.21 -2.75 41.75 C-4.73 42.245 -4.73 42.245 -6.75 42.75 C-6.84893328 37.2690965 -6.92149865 31.78871355 -6.96972656 26.30712891 C-6.98983261 24.44277899 -7.0171218 22.57849206 -7.05175781 20.71435547 C-7.10032121 18.03337052 -7.12297838 15.35321977 -7.140625 12.671875 C-7.16127014 11.83944275 -7.18191528 11.0070105 -7.20318604 10.14935303 C-7.20467809 6.29478592 -7.20028914 4.37546752 -4.89746094 1.17675781 C-2.75 -0.25 -2.75 -0.25 0 0 Z " fill="#384D69" transform="translate(153.75,173.25)"/>
<path d="M0 0 C2.75949646 1.82286862 5.24332262 3.90951244 7.75 6.0625 C8.44665771 6.64523682 9.14331543 7.22797363 9.86108398 7.82836914 C11.26167482 9.00018014 12.65880468 10.17614165 14.05224609 11.35644531 C16.69421618 13.58579385 19.37696636 15.76084342 22.0625 17.9375 C26.09157723 21.2362309 30.06501701 24.58968141 34 28 C31 28 31 28 28 27 C28 26.34 28 25.68 28 25 C27.34 25 26.68 25 26 25 C26 24.34 26 23.68 26 23 C24.8553125 22.5978125 24.8553125 22.5978125 23.6875 22.1875 C21.11011382 21.04865495 19.73045136 20.18583329 18 18 C18 17.34 18 16.68 18 16 C17.071875 15.731875 16.14375 15.46375 15.1875 15.1875 C12.24218975 14.09022755 10.84982123 13.46642831 9 11 C9 10.34 9 9.68 9 9 C8.195625 8.6596875 8.195625 8.6596875 7.375 8.3125 C5 7 5 7 2.1875 4.5 C-1.00809223 1.72939701 -3.89998627 0.90200302 -8 0 C-8 0.66 -8 1.32 -8 2 C-11.465 3.485 -11.465 3.485 -15 5 C-13.81550505 1.44651515 -12.23454903 0.58029141 -9.1796875 -1.42578125 C-5.77651528 -2.32231587 -3.0960916 -1.43058321 0 0 Z " fill="#3F546D" transform="translate(162,105)"/>
<path d="M0 0 C4.85029222 1.50495048 7.91708481 4.24386693 11.5625 7.625 C12.12646484 8.12128906 12.69042969 8.61757812 13.27148438 9.12890625 C13.82255859 9.63550781 14.37363281 10.14210938 14.94140625 10.6640625 C15.43326416 11.11217285 15.92512207 11.5602832 16.43188477 12.02197266 C21.14540793 17.96763117 22.59183416 23.38962669 22.390625 30.875 C22.38496521 31.68493408 22.37930542 32.49486816 22.37347412 33.3293457 C22.3512902 35.88686167 22.30113203 38.44291591 22.25 41 C22.22991157 42.74607335 22.21166493 44.49216892 22.1953125 46.23828125 C22.15148505 50.49274075 22.08258721 54.74612357 22 59 C21.67 59 21.34 59 21 59 C21 47.78 21 36.56 21 25 C20.34 25 19.68 25 19 25 C18.74605469 24.30132812 18.49210937 23.60265625 18.23046875 22.8828125 C17.88628906 21.97273438 17.54210937 21.06265625 17.1875 20.125 C16.85105469 19.22007813 16.51460937 18.31515625 16.16796875 17.3828125 C15.10350976 14.70574151 15.10350976 14.70574151 12 13 C12 12.34 12 11.68 12 11 C11.34 10.67 10.68 10.34 10 10 C8.61462266 9.22663674 7.2406703 8.43265448 5.875 7.625 C5.15054688 7.20476562 4.42609375 6.78453125 3.6796875 6.3515625 C3.12539062 5.90554687 2.57109375 5.45953125 2 5 C2 4.01 2 3.02 2 2 C1.34 2 0.68 2 0 2 C0 1.34 0 0.68 0 0 Z " fill="#3E5570" transform="translate(234,85)"/>
<path d="M0 0 C0.763125 0.309375 1.52625 0.61875 2.3125 0.9375 C6.92529633 2.76116366 10.71692739 3.14297431 15.62084961 3.12939453 C16.39514816 3.13114685 17.16944672 3.13289917 17.96720886 3.13470459 C20.52894324 3.13910881 23.09060866 3.13618984 25.65234375 3.1328125 C27.43209344 3.13348602 29.21184304 3.13445645 30.99159241 3.13571167 C34.72316361 3.13718676 38.45471088 3.13504038 42.1862793 3.13037109 C46.96913785 3.12467806 51.75194023 3.12795131 56.53479671 3.13394356 C60.21078413 3.13755777 63.88675823 3.13640654 67.56274605 3.13381577 C69.32619801 3.13314867 71.08965118 3.13396735 72.85310173 3.13629532 C75.31868562 3.13883546 77.78417872 3.13496179 80.24975586 3.12939453 C81.34320313 3.13243088 81.34320313 3.13243088 82.45874023 3.13552856 C85.78209352 3.12163069 88.82235173 3.03135124 92 2 C91.34 2.99 90.68 3.98 90 5 C87.28059416 5.30228805 84.7877627 5.40942746 82.06542969 5.38818359 C80.835868 5.39606903 80.835868 5.39606903 79.58146667 5.40411377 C76.86141098 5.41735716 74.14193706 5.40855729 71.421875 5.3984375 C69.53338509 5.40045777 67.64489593 5.40336882 65.75640869 5.40713501 C61.79179481 5.41156488 57.82738336 5.40510894 53.86279297 5.39111328 C48.78737534 5.37406772 43.71243524 5.38382894 38.63703537 5.40183067 C34.73360625 5.41269057 30.83028957 5.40921123 26.92685699 5.4014473 C25.05620517 5.39944896 23.18554307 5.40189168 21.31490326 5.40888596 C18.69371184 5.41653147 16.07328328 5.40485096 13.45214844 5.38818359 C12.29699989 5.39729263 12.29699989 5.39729263 11.11851501 5.40658569 C6.34154706 5.3505035 3.09814322 4.44677275 -1 2 C-0.67 1.34 -0.34 0.68 0 0 Z " fill="#425265" transform="translate(72,236)"/>
<path d="M0 0 C1.98 0.99 3.96 1.98 6 3 C6 3.66 6 4.32 6 5 C6.66 5 7.32 5 8 5 C11.55876253 8.61235585 12.4992624 11.00980816 12.5390625 16.03515625 C12.56226563 17.17404297 12.58546875 18.31292969 12.609375 19.48632812 C12.61453125 20.66646484 12.6196875 21.84660156 12.625 23.0625 C12.65053247 25.40765745 12.68404853 27.75274518 12.7265625 30.09765625 C12.73550537 31.65238647 12.73550537 31.65238647 12.74462891 33.23852539 C13.00253877 36.02745317 13.66635421 37.5831817 15 40 C14.9765625 42.359375 14.9765625 42.359375 14.625 44.75 C14.45871094 45.94882813 14.45871094 45.94882813 14.2890625 47.171875 C14.19367188 47.77515625 14.09828125 48.3784375 14 49 C13.67 49 13.34 49 13 49 C12.505 51.475 12.505 51.475 12 54 C11.67 54 11.34 54 11 54 C10.28148339 47.05861628 9.96387626 40.20934475 10.0390625 33.234375 C10.05130859 32.03594971 10.06355469 30.83752441 10.07617188 29.6027832 C10.10845794 27.17922992 10.1538119 24.75581187 10.21289062 22.33276367 C10.22771484 21.2007251 10.24253906 20.06868652 10.2578125 18.90234375 C10.2798877 17.88648193 10.30196289 16.87062012 10.32470703 15.82397461 C9.94103078 12.48714511 8.98799533 10.686488 7 8 C5.02514795 6.6296945 3.02613283 5.29327628 1 4 C0.34 3.01 -0.32 2.02 -1 1 C-0.67 0.67 -0.34 0.34 0 0 Z " fill="#3B4E77" transform="translate(223,104)"/>
<path d="M0 0 C5.19525146 1.3606611 8.17555757 3.35767388 12 7 C12 7.66 12 8.32 12 9 C12.55558594 9.26039063 13.11117187 9.52078125 13.68359375 9.7890625 C16.286598 11.14982358 18.64588162 12.70560148 21.0625 14.375 C21.91972656 14.96023437 22.77695313 15.54546875 23.66015625 16.1484375 C26 18 26 18 27.515625 20.1484375 C29.41896979 22.52260969 30.73160549 22.73593139 33.6875 23.25 C34.49574219 23.39953125 35.30398437 23.5490625 36.13671875 23.703125 C37.05904297 23.85007813 37.05904297 23.85007813 38 24 C37.505 25.485 37.505 25.485 37 27 C33.8125 27.3125 33.8125 27.3125 30 27 C27.5625 24.9375 27.5625 24.9375 25 22 C23.62319386 20.70857718 22.22617809 19.43845256 20.8125 18.1875 C20.13832031 17.58292969 19.46414062 16.97835937 18.76953125 16.35546875 C17.10688352 14.79729987 17.10688352 14.79729987 15 15 C14.525625 14.360625 14.05125 13.72125 13.5625 13.0625 C12.0908635 10.71627037 12.0908635 10.71627037 9 10 C5.65571025 6.91296331 2.7773563 3.60027668 0 0 Z " fill="#3B526C" transform="translate(168,140)"/>
<path d="M0 0 C0.66 0.33 1.32 0.66 2 1 C1.34 1.99 0.68 2.98 0 4 C-0.66 4 -1.32 4 -2 4 C-2 4.66 -2 5.32 -2 6 C-2.66 6 -3.32 6 -4 6 C-4 6.66 -4 7.32 -4 8 C-5.32 8.33 -6.64 8.66 -8 9 C-8 9.66 -8 10.32 -8 11 C-8.99 11 -9.98 11 -11 11 C-11 11.66 -11 12.32 -11 13 C-11.66 13 -12.32 13 -13 13 C-13 13.66 -13 14.32 -13 15 C-13.99 15 -14.98 15 -16 15 C-16 15.66 -16 16.32 -16 17 C-16.66 17 -17.32 17 -18 17 C-18.33 17.99 -18.66 18.98 -19 20 C-21.21484375 21.640625 -21.21484375 21.640625 -23.9375 23.25 C-24.83339844 23.79140625 -25.72929688 24.3328125 -26.65234375 24.890625 C-27.42707031 25.25671875 -28.20179687 25.6228125 -29 26 C-29.66 25.67 -30.32 25.34 -31 25 C-23.45343572 18.50328509 -15.80850105 12.21095017 -7.875 6.19140625 C-5.21733931 4.16566216 -2.60041103 2.09849346 0 0 Z " fill="#3D506B" transform="translate(143,111)"/>
<path d="M0 0 C2.18648367 4.37296734 2.23362071 7.5208216 2.125 12.25 C2.11597656 12.99507812 2.10695313 13.74015625 2.09765625 14.5078125 C2.07418358 16.33868059 2.03831525 18.16938238 2 20 C1.34 20 0.68 20 0 20 C-0.20625 21.051875 -0.4125 22.10375 -0.625 23.1875 C-1.89678908 27.67993482 -4.13673137 29.47704906 -8 32 C-8.99 31.67 -9.98 31.34 -11 31 C-10.34 31 -9.68 31 -9 31 C-8.80664062 30.37351563 -8.61328125 29.74703125 -8.4140625 29.1015625 C-8.15367187 28.28429687 -7.89328125 27.46703125 -7.625 26.625 C-7.24214844 25.40683594 -7.24214844 25.40683594 -6.8515625 24.1640625 C-6 22 -6 22 -4 20 C-3.67 19.01 -3.34 18.02 -3 17 C-3 17.66 -3 18.32 -3 19 C-2.34 19 -1.68 19 -1 19 C-0.67 12.73 -0.34 6.46 0 0 Z " fill="#314D6D" transform="translate(255,202)"/>
<path d="M0 0 C4.02969951 2.95162406 8.02176164 5.94506434 11.875 9.125 C12.42929688 9.58132812 12.98359375 10.03765625 13.5546875 10.5078125 C16.22228603 13.26192774 16.95374286 15.58368572 17.375 19.375 C16.93125342 23.66455031 15.74061875 25.7112575 13 29 C12.01 29.33 11.02 29.66 10 30 C10.30292969 29.43410156 10.60585937 28.86820313 10.91796875 28.28515625 C11.99748396 26.00531366 12.70430588 23.8826886 13.3125 21.4375 C13.61607422 20.29087891 13.61607422 20.29087891 13.92578125 19.12109375 C13.95027344 18.42113281 13.97476563 17.72117188 14 17 C13.0238311 15.97672375 12.02303802 14.97641856 11 14 C11 12.68 11 11.36 11 10 C9.9275 9.79375 8.855 9.5875 7.75 9.375 C3.27065827 7.7325747 2.16755421 6.16170408 0 2 C0 1.34 0 0.68 0 0 Z " fill="#415571" transform="translate(197,134)"/>
<path d="M0 0 C0.66 0 1.32 0 2 0 C-1.64911058 9.15370112 -14.24117753 15.49228657 -22 21 C-22.66 20.67 -23.32 20.34 -24 20 C-21.24563488 17.07870366 -18.5544617 14.60177656 -15.25 12.3125 C-11.99364953 10.37854636 -11.99364953 10.37854636 -11 8 C-10.01 8 -9.02 8 -8 8 C-8 7.01 -8 6.02 -8 5 C-6.20963542 3.99088542 -4.41927083 2.98177083 -2.62890625 1.97265625 C-1.02121854 1.1027487 -1.02121854 1.1027487 0 0 Z " fill="#3D506C" transform="translate(137,144)"/>
<path d="M0 0 C0.49854492 0.32145996 0.99708984 0.64291992 1.51074219 0.97412109 C4.91622987 2.37759885 8.19940705 2.35609237 11.828125 2.4140625 C12.57713074 2.43342865 13.32613647 2.4527948 14.09783936 2.4727478 C16.48177836 2.53235716 18.86576614 2.57885354 21.25 2.625 C22.86981231 2.66319701 24.48960468 2.70224975 26.109375 2.7421875 C30.07275406 2.83804313 34.03622819 2.92214246 38 3 C38 2.34 38 1.68 38 1 C40.64 0.67 43.28 0.34 46 0 C46 0.66 46 1.32 46 2 C41.32263818 4.38615634 37.09833646 4.25917253 31.98046875 4.1953125 C31.12189774 4.1924826 30.26332672 4.18965271 29.3787384 4.18673706 C26.64818125 4.1755807 23.9179573 4.15048459 21.1875 4.125 C19.33138496 4.11496432 17.47526476 4.1058395 15.61914062 4.09765625 C11.07929954 4.07565626 6.53970619 4.04115781 2 4 C1.34 2.68 0.68 1.36 0 0 Z " fill="#405366" transform="translate(194,237)"/>
<path d="M0 0 C1.24716797 0.01611328 2.49433594 0.03222656 3.77929688 0.04882812 C5.07287109 0.09072266 6.36644531 0.13261719 7.69921875 0.17578125 C9.01212891 0.19833984 10.32503906 0.22089844 11.67773438 0.24414062 C14.91522005 0.303004 18.15038875 0.38519321 21.38671875 0.48828125 C21.38671875 0.81828125 21.38671875 1.14828125 21.38671875 1.48828125 C20.6911084 1.5133374 19.99549805 1.53839355 19.27880859 1.56420898 C16.1062842 1.68074099 12.9340152 1.80320693 9.76171875 1.92578125 C8.66730469 1.96509766 7.57289063 2.00441406 6.4453125 2.04492188 C4.85009766 2.10776367 4.85009766 2.10776367 3.22265625 2.171875 C2.2486084 2.20853271 1.27456055 2.24519043 0.27099609 2.28295898 C-2.73876645 2.49721413 -5.64624041 2.94759482 -8.61328125 3.48828125 C-9.46626501 7.1621562 -9.72117596 10.53302055 -9.67578125 14.30078125 C-9.66675781 15.27660156 -9.65773437 16.25242188 -9.6484375 17.2578125 C-9.63683594 17.99386719 -9.62523437 18.72992188 -9.61328125 19.48828125 C-10.27328125 19.15828125 -10.93328125 18.82828125 -11.61328125 18.48828125 C-11.74904955 16.42762021 -11.84562028 14.36435368 -11.92578125 12.30078125 C-11.98378906 11.15222656 -12.04179687 10.00367188 -12.1015625 8.8203125 C-11.08132017 1.85817883 -6.53550413 -0.14921242 0 0 Z " fill="#4E6479" transform="translate(202.61328125,217.51171875)"/>
<path d="M0 0 C1.32 0 2.64 0 4 0 C4 0.66 4 1.32 4 2 C4.66 2.33 5.32 2.66 6 3 C5.34 3 4.68 3 4 3 C3.835 3.86625 3.67 4.7325 3.5 5.625 C1.46156051 10.21148884 -1.72152338 12.48639499 -6 15 C-6.66 15 -7.32 15 -8 15 C-8 12 -8 12 -6.25 9.8125 C-4 8 -4 8 0 8 C0 5.36 0 2.72 0 0 Z " fill="#2B4463" transform="translate(88,97)"/>
<path d="M0 0 C0.33 1.32 0.66 2.64 1 4 C-3.75 7 -3.75 7 -6 7 C-6 7.66 -6 8.32 -6 9 C-8.97 10.65 -11.94 12.3 -15 14 C-12.96259258 9.92518517 -11.57604837 8.58884206 -8.0625 5.875 C-7.18722656 5.19179688 -6.31195313 4.50859375 -5.41015625 3.8046875 C-3.64538486 2.48325414 -1.83440281 1.22293521 0 0 Z " fill="#39506B" transform="translate(122,49)"/>
<path d="M0 0 C3.83473284 -0.35671933 5.55342875 -0.29771416 8.8125 1.875 C11.57848899 4.56196074 11.98498799 5.24939955 12.0625 9.125 C12.041875 10.07375 12.02125 11.0225 12 12 C10 11 10 11 8.8125 7.625 C7.89665668 5.30200159 7.36885486 4.23794432 5.25 2.87109375 C3.53549761 2.15556553 1.76904567 1.56742974 0 1 C0 0.67 0 0.34 0 0 Z " fill="#3C556E" transform="translate(155,172)"/>
<path d="M0 0 C0 0.66 0 1.32 0 2 C-0.99 2 -1.98 2 -3 2 C-3 2.66 -3 3.32 -3 4 C-3.66 4 -4.32 4 -5 4 C-5 4.66 -5 5.32 -5 6 C-5.639375 6.28875 -6.27875 6.5775 -6.9375 6.875 C-9.15206079 7.82823451 -9.15206079 7.82823451 -10 10 C-12.28401108 11.46410966 -14.57392556 12.78696278 -17 14 C-15.45264442 9.64297245 -12.06870193 7.41297932 -8.5 4.75 C-7.90574219 4.29109375 -7.31148437 3.8321875 -6.69921875 3.359375 C-2.27004278 0 -2.27004278 0 0 0 Z " fill="#455C74" transform="translate(146,32)"/>
<path d="M0 0 C1.98 0.99 3.96 1.98 6 3 C6 3.66 6 4.32 6 5 C6.66 5 7.32 5 8 5 C9.38232443 6.62626404 10.71937515 8.2925002 12 10 C11.01 11.485 11.01 11.485 10 13 C9.62875 12.2575 9.2575 11.515 8.875 10.75 C6.67011175 7.5161639 4.27361746 6.08954306 1 4 C0.34 3.01 -0.32 2.02 -1 1 C-0.67 0.67 -0.34 0.34 0 0 Z " fill="#3A4D66" transform="translate(223,104)"/>
<path d="M0 0 C3.96064107 1.74268207 7.74436549 4.14674729 11 7 C11 7.66 11 8.32 11 9 C11.66 9 12.32 9 13 9 C13 9.66 13 10.32 13 11 C7.71860321 9.51460715 3.71945899 5.91327696 0 2 C0 1.34 0 0.68 0 0 Z " fill="#3C5472" transform="translate(209,93)"/>
<path d="M0 0 C0 0.99 0 1.98 0 3 C-5.34883721 8 -5.34883721 8 -8 8 C-8 5 -8 5 -6.25 2.875 C-4.04025476 1.03354564 -2.79909134 0.39987019 0 0 Z " fill="#3C4F66" transform="translate(88,104)"/>
<path d="M0 0 C0.66 0.33 1.32 0.66 2 1 C-2.43076923 6.78461538 -2.43076923 6.78461538 -5.3125 7.875 C-5.869375 7.91625 -6.42625 7.9575 -7 8 C-6.1875 6.0625 -6.1875 6.0625 -5 4 C-4.01 3.67 -3.02 3.34 -2 3 C-2 2.34 -2 1.68 -2 1 C-1.34 0.67 -0.68 0.34 0 0 Z " fill="#37506F" transform="translate(147,136)"/>
<path d="M0 0 C4.37859255 0.50522222 6.81651224 3.17827222 10 6 C9.67 6.66 9.34 7.32 9 8 C8.01 7.67 7.02 7.34 6 7 C6 6.34 6 5.68 6 5 C5.01 5 4.02 5 3 5 C1.3125 2.5 1.3125 2.5 0 0 Z " fill="#3F546C" transform="translate(223,77)"/>
<path d="M0 0 C0.99 0.33 1.98 0.66 3 1 C4.30480865 4.26202163 5.21066812 7.57956185 6 11 C5.34 11 4.68 11 4 11 C0 4.5 0 4.5 0 0 Z " fill="#42516D" transform="translate(57,220)"/>
<path d="M0 0 C4.29238623 1.65091778 6.8793915 4.73754566 10 8 C9.67 8.66 9.34 9.32 9 10 C3.97529326 7.62722182 2.43969017 4.78902145 0 0 Z " fill="#3A5171" transform="translate(157,130)"/>
<path d="M0 0 C2.51912388 0.33588318 3.67196119 0.57354954 5.25 2.625 C6.25295915 5.8010373 6.12721966 8.69228878 6 12 C5.67 12 5.34 12 5 12 C5 10.02 5 8.04 5 6 C4.34 6 3.68 6 3 6 C1.375 4.6875 1.375 4.6875 0 3 C0 2.01 0 1.02 0 0 Z " fill="#394F63" transform="translate(208,145)"/>
<path d="M0 0 C2.97 0.33 5.94 0.66 9 1 C8.67 1.99 8.34 2.98 8 4 C5.69 4 3.38 4 1 4 C0.67 2.68 0.34 1.36 0 0 Z " fill="#314F61" transform="translate(197,163)"/>
<path d="M0 0 C0.99 0 1.98 0 3 0 C3.33 2.31 3.66 4.62 4 7 C2.35 6.67 0.7 6.34 -1 6 C-1.042721 4.33388095 -1.04063832 2.66617115 -1 1 C-0.67 0.67 -0.34 0.34 0 0 Z " fill="#314666" transform="translate(100,153)"/>
<path d="M0 0 C0 0.66 0 1.32 0 2 C-2.97 3.65 -5.94 5.3 -9 7 C-6.72853261 2.45706522 -5.25384285 0 0 0 Z " fill="#405477" transform="translate(116,56)"/>
<path d="M0 0 C3.3 0 6.6 0 10 0 C10 0.33 10 0.66 10 1 C6.12315913 2.19287411 3.08378077 3 -1 3 C-0.67 2.01 -0.34 1.02 0 0 Z " fill="#324B67" transform="translate(141,218)"/>
<path d="M0 0 C3 0 3 0 6 1 C5.34 2.32 4.68 3.64 4 5 C3.34 5 2.68 5 2 5 C1.67 5.66 1.34 6.32 1 7 C0.67 4.69 0.34 2.38 0 0 Z " fill="#2E455F" transform="translate(75,112)"/>
<path d="M0 0 C0.33 0.99 0.66 1.98 1 3 C-0.65 4.65 -2.3 6.3 -4 8 C-4.99 7.67 -5.98 7.34 -7 7 C-6.34 7 -5.68 7 -5 7 C-4.731875 6.360625 -4.46375 5.72125 -4.1875 5.0625 C-3 3 -3 3 0 2 C0 1.34 0 0.68 0 0 Z " fill="#3F546A" transform="translate(251,226)"/>
<path d="M0 0 C0.99 0 1.98 0 3 0 C3.625 2.375 3.625 2.375 4 5 C3.34 5.66 2.68 6.32 2 7 C1.34 6.67 0.68 6.34 0 6 C0 4.02 0 2.04 0 0 Z " fill="#283D57" transform="translate(99,148)"/>
<path d="M0 0 C1 3 1 3 0.22265625 5.04296875 C-0.16019531 5.75066406 -0.54304688 6.45835938 -0.9375 7.1875 C-1.31777344 7.90292969 -1.69804688 8.61835937 -2.08984375 9.35546875 C-2.54037109 10.16951172 -2.54037109 10.16951172 -3 11 C-3.83583327 8.62392051 -4.1842383 7.45550373 -3.22265625 5.078125 C-1.61132812 2.5390625 -1.61132812 2.5390625 0 0 Z " fill="#3E516A" transform="translate(61,98)"/>
<path d="M0 0 C0 0.66 0 1.32 0 2 C-2.70879335 3.35439668 -5.00933268 3.06501451 -8 3 C-8 2.34 -8 1.68 -8 1 C-5.10765685 0.17361624 -3.11257569 0 0 0 Z " fill="#325171" transform="translate(240,237)"/>
<path d="M0 0 C-0.33 0.66 -0.66 1.32 -1 2 C-1.99 2 -2.98 2 -4 2 C-4 2.66 -4 3.32 -4 4 C-4.66 4 -5.32 4 -6 4 C-6 3.34 -6 2.68 -6 2 C-6.99 1.67 -7.98 1.34 -9 1 C-3.375 -1.125 -3.375 -1.125 0 0 Z " fill="#2F4963" transform="translate(246,235)"/>
<path d="M0 0 C2.64 0 5.28 0 8 0 C7.67 0.99 7.34 1.98 7 3 C4.69 3 2.38 3 0 3 C0 2.01 0 1.02 0 0 Z " fill="#315369" transform="translate(224,216)"/>
<path d="M0 0 C1.125 1.75 1.125 1.75 2 4 C1.05773345 6.66975522 0.01384202 7.98615798 -2 10 C-2.22036864 6.14354879 -1.60355101 3.50776784 0 0 Z " fill="#1B405B" transform="translate(239,140)"/>
<path d="M0 0 C0.33 0.66 0.66 1.32 1 2 C2.32 1.67 3.64 1.34 5 1 C4.6875 2.9375 4.6875 2.9375 4 5 C3.01 5.33 2.02 5.66 1 6 C0 5 0 5 -0.0625 2.4375 C-0.041875 1.633125 -0.02125 0.82875 0 0 Z " fill="#2C476A" transform="translate(56,110)"/>
<path d="M0 0 C0.33 0.66 0.66 1.32 1 2 C0.360625 2.2475 -0.27875 2.495 -0.9375 2.75 C-3.18741541 3.81562433 -3.18741541 3.81562433 -3.75 6.125 C-3.8325 6.74375 -3.915 7.3625 -4 8 C-4.66 8 -5.32 8 -6 8 C-6 6.35 -6 4.7 -6 3 C-4.02 2.01 -2.04 1.02 0 0 Z " fill="#364C67" transform="translate(105,64)"/>
<path d="" fill="#376670" transform="translate(0,0)"/>
<path d="M0 0 C2 1 2 1 2 1 Z " fill="#447479" transform="translate(161,28)"/>
<path d="" fill="#396D7A" transform="translate(0,0)"/>
<path d="" fill="#34676A" transform="translate(0,0)"/>
<path d="" fill="#44626D" transform="translate(0,0)"/>
<path d="" fill="#38656A" transform="translate(0,0)"/>
<path d="" fill="#36656F" transform="translate(0,0)"/>
<path d="" fill="#44737D" transform="translate(0,0)"/>
</svg>
